<svg width="116" height="86" viewBox="0 0 116 86" fill="none" xmlns="http://www.w3.org/2000/svg">
<g clip-path="url(#clip0_1_136)">
<path d="M4.16472 84.7985C3.16622 84.7985 2.20864 84.4019 1.5026 83.6958C0.796563 82.9899 0.399963 82.0323 0.399963 81.0337V28.8737C0.420269 27.8889 0.825779 26.9512 1.52946 26.2619C2.23313 25.5726 3.17888 25.1865 4.16393 25.1865C5.14897 25.1865 6.09483 25.5726 6.79849 26.2619C7.50217 26.9512 7.90769 27.8889 7.928 28.8737V81.0337C7.928 82.032 7.53153 82.9892 6.82584 83.6953C6.12016 84.4012 5.16292 84.798 4.16472 84.7985Z" fill="black"/>
<path d="M84.8494 67.4261C83.851 67.4261 82.8934 67.0294 82.1873 66.3234C81.4814 65.6173 81.0848 64.6598 81.0848 63.6613V4.66768C81.1051 3.68283 81.5105 2.74517 82.2142 2.05586C82.9177 1.36654 83.8637 0.980469 84.8488 0.980469C85.8337 0.980469 86.7797 1.36654 87.4833 2.05586C88.187 2.74517 88.5923 3.68283 88.6126 4.66768V63.6661C88.6113 64.6635 88.2144 65.6195 87.5089 66.3245C86.8033 67.0294 85.8469 67.4256 84.8494 67.4261Z" fill="black"/>
<path d="M111.125 67.4258C110.126 67.4258 109.169 67.0292 108.463 66.3231C107.757 65.6172 107.36 64.6596 107.36 63.661V28.8786C107.38 27.8938 107.786 26.9562 108.489 26.2668C109.193 25.5775 110.139 25.1914 111.124 25.1914C112.109 25.1914 113.055 25.5775 113.759 26.2668C114.462 26.9562 114.868 27.8938 114.888 28.8786V63.661C114.888 64.6592 114.491 65.6167 113.786 66.3226C113.08 67.0285 112.123 67.4253 111.125 67.4258Z" fill="black"/>
<path d="M44.5072 67.0444C40.4286 67.0447 36.4418 65.8356 33.0504 63.5698C29.6592 61.3042 27.0158 58.0837 25.4549 54.3159C23.8939 50.5479 23.4853 46.4018 24.2808 42.4017C25.0763 38.4015 27.0401 34.7269 29.924 31.8429C32.8078 28.9589 36.4819 26.9948 40.4821 26.1991C44.4821 25.4033 48.6283 25.8116 52.3965 27.3722C56.1645 28.933 59.3851 31.5759 61.651 34.9671C63.917 38.3581 65.1264 42.345 65.1264 46.4236C65.1213 51.8906 62.9473 57.1325 59.0816 60.9985C55.216 64.8645 49.9742 67.0388 44.5072 67.0444ZM44.5072 32.6444C41.7819 32.6444 39.1179 33.4525 36.8518 34.9666C34.5859 36.4807 32.8198 38.6325 31.7769 41.1505C30.7339 43.6682 30.4609 46.4388 30.9926 49.1117C31.5243 51.7845 32.8368 54.2399 34.7638 56.1669C36.6909 58.094 39.1461 59.4063 41.819 59.938C44.4918 60.4697 47.2626 60.1967 49.7803 59.1538C52.2981 58.111 54.4501 56.3449 55.9642 54.0788C57.4782 51.8129 58.2864 49.1489 58.2864 46.4236C58.2821 42.7703 56.8289 39.2681 54.2457 36.6849C51.6627 34.1017 48.1603 32.6485 44.5072 32.6444Z" fill="black"/>
</g>
<defs>
<clipPath id="clip0_1_136">
<rect width="115.2" height="84.8" fill="white" transform="translate(0.399994 0.900391)"/>
</clipPath>
</defs>
</svg>
